<?xml version="1.0" encoding="UTF-8" standalone="no"?><svg xmlns="http://www.w3.org/2000/svg" xmlns:xlink="http://www.w3.org/1999/xlink" contentScriptType="application/ecmascript" contentStyleType="text/css" height="735px" preserveAspectRatio="none" style="width:494px;height:735px;" version="1.1" viewBox="0 0 494 735" width="494px" zoomAndPan="magnify"><defs><filter height="300%" id="f1i5ude4ad0l7u" width="300%" x="-1" y="-1"><feGaussianBlur result="blurOut" stdDeviation="2.0"/><feColorMatrix in="blurOut" result="blurOut2" type="matrix" values="0 0 0 0 0 0 0 0 0 0 0 0 0 0 0 0 0 0 .4 0"/><feOffset dx="4.0" dy="4.0" in="blurOut2" result="blurOut3"/><feBlend in="SourceGraphic" in2="blurOut3" mode="normal"/></filter></defs><g><text fill="#000000" font-family="sans-serif" font-size="18" lengthAdjust="spacingAndGlyphs" textLength="179" x="151" y="18.6855">VRChat+無線LAN環境</text><!--MD5=[d93f7df8dba7c437e9ce71c4a3dabf0e]
cluster quest--><polygon fill="#FFFFFF" filter="url(#f1i5ude4ad0l7u)" points="16,38.6406,26,28.6406,256,28.6406,256,346.6406,246,356.6406,16,356.6406,16,38.6406" style="stroke:#000000;stroke-width:1.5;"/><line style="stroke:#000000;stroke-width:1.5;" x1="246" x2="256" y1="38.6406" y2="28.6406"/><line style="stroke:#000000;stroke-width:1.5;" x1="16" x2="246" y1="38.6406" y2="38.6406"/><line style="stroke:#000000;stroke-width:1.5;" x1="246" x2="246" y1="38.6406" y2="356.6406"/><text fill="#000000" font-family="sans-serif" font-size="14" font-weight="bold" lengthAdjust="spacingAndGlyphs" textLength="92" x="86" y="56.1738">&lt;&lt;デバイス&gt;&gt;</text><text fill="#000000" font-family="sans-serif" font-size="14" font-weight="bold" lengthAdjust="spacingAndGlyphs" textLength="107" x="78.5" y="73.7832">Oculus Quest 2</text><!--MD5=[b7b14e8444e3c5d78ccf181a2614e889]
cluster pc--><polygon fill="#FFFFFF" filter="url(#f1i5ude4ad0l7u)" points="178,416.6406,188,406.6406,477,406.6406,477,718.6406,467,728.6406,178,728.6406,178,416.6406" style="stroke:#000000;stroke-width:1.5;"/><line style="stroke:#000000;stroke-width:1.5;" x1="467" x2="477" y1="416.6406" y2="406.6406"/><line style="stroke:#000000;stroke-width:1.5;" x1="178" x2="467" y1="416.6406" y2="416.6406"/><line style="stroke:#000000;stroke-width:1.5;" x1="467" x2="467" y1="416.6406" y2="728.6406"/><text fill="#000000" font-family="sans-serif" font-size="14" font-weight="bold" lengthAdjust="spacingAndGlyphs" textLength="92" x="277.5" y="434.1738">&lt;&lt;デバイス&gt;&gt;</text><text fill="#000000" font-family="sans-serif" font-size="14" font-weight="bold" lengthAdjust="spacingAndGlyphs" textLength="19" x="314" y="451.7832">PC</text><!--MD5=[4c420dbc44a071c25c7c4f3032ec64b9]
cluster vds--><polygon fill="#FFFFFF" filter="url(#f1i5ude4ad0l7u)" points="202,483.6406,212,473.6406,453,473.6406,453,694.6406,443,704.6406,202,704.6406,202,483.6406" style="stroke:#000000;stroke-width:1.5;"/><line style="stroke:#000000;stroke-width:1.5;" x1="443" x2="453" y1="483.6406" y2="473.6406"/><line style="stroke:#000000;stroke-width:1.5;" x1="202" x2="443" y1="483.6406" y2="483.6406"/><line style="stroke:#000000;stroke-width:1.5;" x1="443" x2="443" y1="483.6406" y2="704.6406"/><text fill="#000000" font-family="sans-serif" font-size="14" font-weight="bold" lengthAdjust="spacingAndGlyphs" textLength="62" x="292.5" y="501.1738">&lt;&lt;環境&gt;&gt;</text><text fill="#000000" font-family="sans-serif" font-size="14" font-weight="bold" lengthAdjust="spacingAndGlyphs" textLength="175" x="236" y="518.7832">Virtual Desktop Streamer</text><!--MD5=[d2be1ffca5fcc506a20cdab2c9355893]
cluster steamvr--><polygon fill="#FFFFFF" filter="url(#f1i5ude4ad0l7u)" points="242,550.6406,252,540.6406,414,540.6406,414,670.6406,404,680.6406,242,680.6406,242,550.6406" style="stroke:#000000;stroke-width:1.5;"/><line style="stroke:#000000;stroke-width:1.5;" x1="404" x2="414" y1="550.6406" y2="540.6406"/><line style="stroke:#000000;stroke-width:1.5;" x1="242" x2="404" y1="550.6406" y2="550.6406"/><line style="stroke:#000000;stroke-width:1.5;" x1="404" x2="404" y1="550.6406" y2="680.6406"/><text fill="#000000" font-family="sans-serif" font-size="14" font-weight="bold" lengthAdjust="spacingAndGlyphs" textLength="62" x="293" y="568.1738">&lt;&lt;環境&gt;&gt;</text><text fill="#000000" font-family="sans-serif" font-size="14" font-weight="bold" lengthAdjust="spacingAndGlyphs" textLength="66" x="291" y="585.7832">Steam VR</text><!--MD5=[902f6b5d2eddf79d3daa62c7c758bcf1]
entity vd--><polygon fill="#FEFECE" filter="url(#f1i5ude4ad0l7u)" points="32.5,97.6406,42.5,87.6406,239.5,87.6406,239.5,160.4688,229.5,170.4688,32.5,170.4688,32.5,97.6406" style="stroke:#000000;stroke-width:1.5;"/><line style="stroke:#000000;stroke-width:1.5;" x1="229.5" x2="239.5" y1="97.6406" y2="87.6406"/><line style="stroke:#000000;stroke-width:1.5;" x1="32.5" x2="229.5" y1="97.6406" y2="97.6406"/><line style="stroke:#000000;stroke-width:1.5;" x1="229.5" x2="229.5" y1="97.6406" y2="170.4688"/><text fill="#000000" font-family="sans-serif" font-size="14" lengthAdjust="spacingAndGlyphs" textLength="44" x="47.5" y="122.1738">«環境»</text><text fill="#000000" font-family="sans-serif" font-size="14" lengthAdjust="spacingAndGlyphs" textLength="96" x="47.5" y="139.7832">Virtual Desktop</text><text fill="#000000" font-family="sans-serif" font-size="14" lengthAdjust="spacingAndGlyphs" textLength="8" x="47.5" y="157.3926">+</text><text fill="#FF0000" font-family="sans-serif" font-size="14" lengthAdjust="spacingAndGlyphs" textLength="159" x="55.5" y="157.3926">Virtual Desktop VR Patch</text><path d="M61.5,248.6406 L61.5,340.3984 A0,0 0 0 0 61.5,340.3984 L210.5,340.3984 A0,0 0 0 0 210.5,340.3984 L210.5,258.6406 L200.5,248.6406 L140,248.6406 L136,170.9766 L132,248.6406 L61.5,248.6406 A0,0 0 0 0 61.5,248.6406 " fill="#FBFB77" filter="url(#f1i5ude4ad0l7u)" style="stroke:#A80036;stroke-width:1.0;"/><path d="M200.5,248.6406 L200.5,258.6406 L210.5,258.6406 L200.5,248.6406 " fill="#FBFB77" style="stroke:#A80036;stroke-width:1.0;"/><text fill="#000000" font-family="sans-serif" font-size="13" lengthAdjust="spacingAndGlyphs" textLength="125" x="67.5" y="267.1357">Patchを入れるため、</text><text fill="#000000" font-family="sans-serif" font-size="13" lengthAdjust="spacingAndGlyphs" textLength="104" x="67.5" y="283.4873">下記を設定する。</text><text fill="#000000" font-family="sans-serif" font-size="13" lengthAdjust="spacingAndGlyphs" textLength="110" x="67.5" y="299.8389">・開発者モードON</text><text fill="#000000" font-family="sans-serif" font-size="13" lengthAdjust="spacingAndGlyphs" textLength="128" x="67.5" y="316.1904">・Oculus ADB Drivers</text><text fill="#000000" font-family="sans-serif" font-size="13" lengthAdjust="spacingAndGlyphs" textLength="74" x="67.5" y="332.542">・SideQuest</text><!--MD5=[db73d7cef320c068ba227733f3d2fa20]
entity vrchat--><polygon fill="#FEFECE" filter="url(#f1i5ude4ad0l7u)" points="258.5,609.6406,268.5,599.6406,397.5,599.6406,397.5,654.8594,387.5,664.8594,258.5,664.8594,258.5,609.6406" style="stroke:#000000;stroke-width:1.5;"/><line style="stroke:#000000;stroke-width:1.5;" x1="387.5" x2="397.5" y1="609.6406" y2="599.6406"/><line style="stroke:#000000;stroke-width:1.5;" x1="258.5" x2="387.5" y1="609.6406" y2="609.6406"/><line style="stroke:#000000;stroke-width:1.5;" x1="387.5" x2="387.5" y1="609.6406" y2="664.8594"/><text fill="#000000" font-family="sans-serif" font-size="14" lengthAdjust="spacingAndGlyphs" textLength="44" x="273.5" y="634.1738">«環境»</text><text fill="#000000" font-family="sans-serif" font-size="14" lengthAdjust="spacingAndGlyphs" textLength="99" x="273.5" y="651.7832">VRChat(Steam)</text><!--MD5=[46f48e276900a558a36691f9dc2ae706]
entity lan--><polygon fill="#FEFECE" filter="url(#f1i5ude4ad0l7u)" points="272,272.1406,282,262.1406,384,262.1406,384,317.3594,374,327.3594,272,327.3594,272,272.1406" style="stroke:#000000;stroke-width:1.5;"/><line style="stroke:#000000;stroke-width:1.5;" x1="374" x2="384" y1="272.1406" y2="262.1406"/><line style="stroke:#000000;stroke-width:1.5;" x1="272" x2="374" y1="272.1406" y2="272.1406"/><line style="stroke:#000000;stroke-width:1.5;" x1="374" x2="374" y1="272.1406" y2="327.3594"/><text fill="#000000" font-family="sans-serif" font-size="14" lengthAdjust="spacingAndGlyphs" textLength="72" x="287" y="296.6738">«デバイス»</text><text fill="#000000" font-family="sans-serif" font-size="14" lengthAdjust="spacingAndGlyphs" textLength="54" x="287" y="314.2832">LAN機器</text><!--MD5=[92cce3aa4e04695cafad7741ecca9b8f]
link vd to lan--><path d="M183.954,170.9766 C215.632,197.9516 256.713,232.9346 286.893,258.6346 " fill="none" id="vd-to-lan" style="stroke:#A80036;stroke-width:1.0;"/><polygon fill="#A80036" points="290.89,262.0386,286.6323,253.1576,287.0837,258.7964,281.4448,259.2478,290.89,262.0386" style="stroke:#A80036;stroke-width:1.0;"/><text fill="#000000" font-family="sans-serif" font-size="13" lengthAdjust="spacingAndGlyphs" textLength="65" x="239" y="215.1357">«無線LAN»</text><!--MD5=[fca91cbb1fafcffe4c0addee6a5df232]
link lan to vrchat--><path d="M328,327.2036 C328,389.5236 328,528.0686 328,594.3836 " fill="none" id="lan-to-vrchat" style="stroke:#A80036;stroke-width:1.0;"/><polygon fill="#A80036" points="328,599.4166,332,590.4166,328,594.4166,324,590.4166,328,599.4166" style="stroke:#A80036;stroke-width:1.0;"/><text fill="#000000" font-family="sans-serif" font-size="13" lengthAdjust="spacingAndGlyphs" textLength="65" x="329" y="387.1357">«有線LAN»</text><!--MD5=[962484ced52ace1f632d4618fc0c8a75]
@startuml
title VRChat+無線LAN環境
node "<<デバイス>>\nOculus Quest 2" as quest {
  node "<<環境>>\nVirtual Desktop\n+<font color=red>Virtual Desktop VR Patch</font>" as vd
  note bottom
  Patchを入れるため、
  下記を設定する。
  ・開発者モードON
  ・Oculus ADB Drivers
  ・SideQuest
  end note
}
node "<<デバイス>>\nLAN機器" as lan
node "<<デバイス>>\nPC" as pc {
  node "<<環境>>\nVirtual Desktop Streamer" as vds {
    node "<<環境>>\nSteam VR" as steamvr {
      node "<<環境>>\nVRChat(Steam)" as vrchat
    }
  }
}
vd -down-> lan : <<無線LAN>>
lan -down-> vrchat : <<有線LAN>>
@enduml

PlantUML version 1.2020.22(Sun Dec 06 18:36:27 JST 2020)
(GPL source distribution)
Java Runtime: Java(TM) SE Runtime Environment
JVM: Java HotSpot(TM) Client VM
Default Encoding: MS932
Language: ja
Country: JP
--></g></svg>